<?xml version="1.0" encoding="UTF-8"?>
<svg version="1.1" xmlns="http://www.w3.org/2000/svg" xmlns:xlink="http://www.w3.org/1999/xlink" >
	<style>:root>svg{display:none}:root>svg:target{display:block}</style>
	<svg id="mail"  viewBox="0 0 16.375 12.343" xmlns="http://www.w3.org/2000/svg">
		<path id="Path_2" d="M141.154,184.273a2.017,2.017,0,0,1-.27.976l-5.087-5.807,5.134-4.4a2.024,2.024,0,0,1,.306,1.084Zm-8.108-3.814,7.143-6.124a2.011,2.011,0,0,0-.969-.266L127,173.944a2,2,0,0,0-.972.247Zm1.977-.355-1.653,1.417a.505.505,0,0,1-.337.122.511.511,0,0,1-.333-.128l-1.624-1.453-5.269,5.778a2.031,2.031,0,0,0,1.07.324l12.221.122a2.011,2.011,0,0,0,1.077-.3Zm-9.75-5.222a2.025,2.025,0,0,0-.33,1.079l-.081,8.146a2.015,2.015,0,0,0,.25.983l5.2-5.706Zm0,0" transform="translate(-124.862 -173.944)" fill="#000e2f"/>
	</svg>
	
	<svg id="phone"  viewBox="0 0 14.487 14.487" xmlns="http://www.w3.org/2000/svg">
		<path id="Path_218" d="M86.17,126.52a8.325,8.325,0,0,1-1.491-.309,1.7,1.7,0,0,0-1.7.42l-.926.926a10.673,10.673,0,0,1-4.221-4.222l.926-.926a1.7,1.7,0,0,0,.42-1.7,8.3,8.3,0,0,1-.309-1.491,1.7,1.7,0,0,0-1.691-1.5H74.89a1.7,1.7,0,0,0-1.7,1.706c0,.052,0,.1.007.156A13.965,13.965,0,0,0,85.813,132.19a1.7,1.7,0,0,0,1.862-1.695v-2.285A1.7,1.7,0,0,0,86.17,126.52Z" transform="translate(-73.188 -117.71)" fill="#000e2f"/>
	</svg>
	
	<svg id="fb" xmlns="http://www.w3.org/2000/svg" width="9.37" height="18.737" viewBox="0 0 9.37 18.737">
		<path id="facebook" d="M13.846,3.111h1.711V.132A22.088,22.088,0,0,0,13.064,0C10.6,0,8.909,1.551,8.909,4.4V7.027H6.187v3.331H8.909v8.38h3.337v-8.38h2.612l.415-3.331H12.245V4.733c0-.963.26-1.622,1.6-1.622Z" transform="translate(-6.187)"/>
	</svg>
	
	<svg id="insta" xmlns="http://www.w3.org/2000/svg" width="18.734" height="18.737" viewBox="0 0 18.734 18.737">
		<path id="Path_219" data-name="Path 219" d="M19.135,5.509A6.847,6.847,0,0,0,18.7,3.236,4.8,4.8,0,0,0,15.958.494,6.864,6.864,0,0,0,13.685.059C12.682.011,12.364,0,9.82,0S6.957.011,5.958.055A6.849,6.849,0,0,0,3.685.49,4.572,4.572,0,0,0,2.023,1.574,4.613,4.613,0,0,0,.943,3.232,6.865,6.865,0,0,0,.508,5.505C.46,6.508.449,6.827.449,9.371S.46,12.233.5,13.232A6.846,6.846,0,0,0,.94,15.505a4.8,4.8,0,0,0,2.742,2.742,6.865,6.865,0,0,0,2.273.436c1,.044,1.318.055,3.862.055s2.862-.011,3.862-.055a6.845,6.845,0,0,0,2.273-.436,4.793,4.793,0,0,0,2.742-2.742,6.87,6.87,0,0,0,.436-2.273c.044-1,.055-1.318.055-3.862S19.179,6.508,19.135,5.509Zm-1.687,7.65a5.136,5.136,0,0,1-.322,1.739,3.108,3.108,0,0,1-1.779,1.779A5.154,5.154,0,0,1,13.608,17c-.988.044-1.285.055-3.785.055s-2.8-.011-3.785-.055A5.133,5.133,0,0,1,4.3,16.677a2.883,2.883,0,0,1-1.076-.7,2.913,2.913,0,0,1-.7-1.076A5.155,5.155,0,0,1,2.2,13.163c-.044-.988-.055-1.285-.055-3.785s.011-2.8.055-3.785a5.133,5.133,0,0,1,.322-1.739,2.848,2.848,0,0,1,.7-1.076,2.909,2.909,0,0,1,1.076-.7,5.158,5.158,0,0,1,1.739-.322C7.031,1.713,7.327,1.7,9.827,1.7s2.8.011,3.785.055a5.136,5.136,0,0,1,1.739.322,2.881,2.881,0,0,1,1.076.7,2.913,2.913,0,0,1,.7,1.076,5.157,5.157,0,0,1,.322,1.739c.044.988.055,1.285.055,3.785S17.492,12.171,17.448,13.159Zm0,0" transform="translate(-0.449 0)"/>
		<path id="Path_220" data-name="Path 220" d="M129.763,124.5a4.813,4.813,0,1,0,4.813,4.813A4.815,4.815,0,0,0,129.763,124.5Zm0,7.936a3.122,3.122,0,1,1,3.122-3.122A3.123,3.123,0,0,1,129.763,132.436Zm0,0" transform="translate(-120.392 -119.943)"/>
		<path id="Path_221" data-name="Path 221" d="M364.7,89.725a1.124,1.124,0,1,1-1.124-1.124A1.124,1.124,0,0,1,364.7,89.725Zm0,0" transform="translate(-349.199 -85.358)"/>
	</svg>
	
	<svg id="linkedin" xmlns="http://www.w3.org/2000/svg" width="18.737" height="18.737" viewBox="0 0 18.737 18.737">
		<path id="Path_223" data-name="Path 223" d="M20.594,20.4h0V13.525c0-3.362-.724-5.951-4.654-5.951a4.08,4.08,0,0,0-3.675,2.02h-.055V7.888H8.489V20.4h3.88V14.2c0-1.631.309-3.208,2.329-3.208,1.99,0,2.02,1.861,2.02,3.313V20.4Z" transform="translate(-1.861 -1.661)"/>
		<path id="Path_224" data-name="Path 224" d="M.4,7.977H4.281v12.51H.4Z" transform="translate(-0.087 -1.749)"/>
		<path id="Path_225" data-name="Path 225" d="M2.25,0A2.261,2.261,0,1,0,4.5,2.25,2.251,2.251,0,0,0,2.25,0Z"/>
	</svg>
	
	<svg id="commercial" xmlns="http://www.w3.org/2000/svg" width="105.885" height="111.309" viewBox="0 0 105.885 111.309">
		<g id="Сгруппировать_253" data-name="Сгруппировать 253" transform="translate(-346 -1390.692)">
			<path id="Контур_401" data-name="Контур 401" d="M0,8.751,23,0V16H0Z" transform="translate(398 1393)" fill="#ffb300"/>
			<path id="office" d="M135.47,128.479h-2.715V71.8a1.415,1.415,0,0,0-1.415-1.415H112V39.416A1.415,1.415,0,0,0,110.587,38h-3.066V21.415a1.415,1.415,0,0,0-1.953-1.309L88.48,27.129v-4.77a1.415,1.415,0,0,0-1.415-1.415H66.549a1.415,1.415,0,0,0-1.415,1.415V55.491H38.546a1.415,1.415,0,0,0-1.415,1.415v71.572H32.415a1.415,1.415,0,1,0,0,2.83H135.47a1.415,1.415,0,0,0,0-2.83Zm-5.545-55.261v55.261H116.718V86.345a1.415,1.415,0,0,0-2.122-1.226L112,86.615v-13.4ZM84.41,84.988v43.491H61.5V71.308Zm2.14-2.018L74.742,75.919V66.174l21.7-12.517V95.6L90.07,99.269a1.415,1.415,0,0,0-.707,1.226v27.984H87.24V84.185a1.415,1.415,0,0,0-.69-1.215Zm5.642,18.342,21.7-12.517v39.684h-21.7Zm16.979-13.063-9.9,5.714V51.208a1.415,1.415,0,0,0-2.122-1.226L79.694,60.05V40.83h29.478ZM104.691,38H84.568V31.8l20.124-8.27ZM85.65,23.773v4.519l-3.036,1.247a1.415,1.415,0,0,0-.877,1.309V38H78.279a1.415,1.415,0,0,0-1.415,1.415V61.682l-4.245,2.449a1.415,1.415,0,0,0-.707,1.226V74.23l-3.948-2.358v-48.1ZM39.961,58.321H65.134V70.183L60.808,67.6a1.415,1.415,0,0,0-2.14,1.215v59.663H39.961Z" transform="translate(315 1370.692)" fill="#000e2f"/>
		</g>
	</svg>
	
	
	<svg  id="industrial"  xmlns="http://www.w3.org/2000/svg" width="113.433" height="110.942" viewBox="0 0 113.433 110.942">
		<g id="Group_254" data-name="Group 254" transform="translate(-717 -1390.692)">
			<rect id="Rectangle_315" data-name="Rectangle 315" width="6" height="37" transform="translate(809 1399)" fill="#ffb300"/>
			<rect id="Rectangle_316" data-name="Rectangle 316" width="8" height="13" transform="translate(762.5 1464.5) rotate(-90)" fill="#ffb300"/>
			<rect id="Rectangle_319" data-name="Rectangle 319" width="5" height="22" transform="translate(739.5 1439.5) rotate(-90)" fill="#ffb300"/>
			<rect id="Rectangle_317" data-name="Rectangle 317" width="8" height="12" transform="translate(763.5 1478.5) rotate(-90)" fill="#ffb300"/>
			<rect id="Rectangle_318" data-name="Rectangle 318" width="8" height="11" transform="translate(764.5 1492.5) rotate(-90)" fill="#ffb300"/>
			<g id="factory_3_" data-name="factory (3)" transform="translate(697 1365.325)">
				<path id="Path_397" data-name="Path 397" d="M123.692,26.384a5.078,5.078,0,0,0-7.11,1.012l-.058.08a5.073,5.073,0,0,0-6.03,4.147,5.076,5.076,0,0,0-2.629,9.12q.156.117.319.221a5.082,5.082,0,0,0,6.341,3.388,5.032,5.032,0,0,0,4.561-.267,5.029,5.029,0,0,0,2.644.749,5.15,5.15,0,0,0,.727-.052,5.078,5.078,0,0,0,2.331-9.089q-.2-.153-.42-.284a5.128,5.128,0,0,0-.063-1.445,5.08,5.08,0,0,0-.613-7.58Zm-.2,14.688a2.194,2.194,0,0,1-3.072.437,2.13,2.13,0,0,1-.27-.24,1.442,1.442,0,0,0-1.028-.451h-.019a1.442,1.442,0,0,0-1.021.424,2.2,2.2,0,0,1-2.705.308,1.442,1.442,0,0,0-1.389-.078,2.194,2.194,0,0,1-3.117-1.669,1.442,1.442,0,0,0-.854-1.119,2.1,2.1,0,0,1-.424-.248,2.194,2.194,0,0,1,1.94-3.859,1.442,1.442,0,0,0,1.822-1.681,2.192,2.192,0,0,1,3.175-2.385,1.442,1.442,0,0,0,2.043-.8,2.142,2.142,0,0,1,.312-.584,2.194,2.194,0,1,1,2.972,3.145,1.442,1.442,0,0,0-.526,1.77,2.194,2.194,0,0,1,.024,1.669,1.442,1.442,0,0,0,.966,1.928,2.137,2.137,0,0,1,.734.36,2.2,2.2,0,0,1,.438,3.073Z" transform="translate(-65.205)" fill="#000e2f"/>
				<path id="Path_398" data-name="Path 398" d="M131.991,155.524h-2.5V113.349a1.442,1.442,0,0,0-.856-1.318l-4.315-1.919V93.206a1.442,1.442,0,0,0-1.442-1.442h-3.917V55.9a1.442,1.442,0,0,0-1.442-1.442h-5.463a1.442,1.442,0,0,0-1.442,1.442V91.764H98.687a1.442,1.442,0,0,0-1.442,1.442v4.86l-4.727-2.1a1.442,1.442,0,0,0-1.221.023l-12.931,6.345L65.019,96.393c-.977-10.873-1.7-19.461-1.759-21.556a6.253,6.253,0,0,0-6.285-6.116H47.756a6.254,6.254,0,0,0-6.285,6.115c-.072,2.644-1.241,15.954-2.629,31.093l-13.571,6.038a1.442,1.442,0,0,0-.856,1.317v42.239H21.442a1.442,1.442,0,0,0,0,2.884H131.991a1.442,1.442,0,0,0,0-2.884ZM113.5,57.341h2.579V91.764H113.5Zm-13.37,37.307h21.309v14.181l-21.309-9.479Zm-8.167,4.224,34.646,15.412v41.24h-3.666v-26.36a1.442,1.442,0,0,0-1.442-1.442H106.548a1.442,1.442,0,0,0-1.442,1.442v26.36h-4.08V113.349a1.442,1.442,0,0,0-.856-1.318L81.8,103.86Zm28.1,56.651H107.99V130.605h12.068Zm-21.916-41.24v41.24H70.551c-.09-.943-.235-2.456-.423-4.422h8a1.442,1.442,0,0,0,1.442-1.442v-9.489a1.442,1.442,0,0,0-1.442-1.442H68.95l-.162-1.714,9.338,0h0a1.442,1.442,0,0,0,1.442-1.442v-9.489a1.442,1.442,0,0,0-1.442-1.442h-10.5q-.08-.852-.16-1.71H78.127a1.442,1.442,0,0,0,1.442-1.442v-9.489a1.442,1.442,0,0,0-1.442-1.442H66.311c-.344-3.724-.68-7.392-1-10.882ZM41.57,107.8H63.16q.193,2.1.391,4.238a1.477,1.477,0,0,0,.018.192c.286,3.1.577,6.219.865,9.3a1.411,1.411,0,0,0,.018.2c1.421,15.211,2.772,29.308,3.2,33.8H37.079c.561-5.856,2.681-28.033,4.49-47.721Zm27.654,33.812h7.461v6.6H69.853C69.667,146.269,69.455,144.045,69.224,141.613ZM67.893,127.53h8.791v6.6l-8.169,0c-.2-2.127-.409-4.337-.622-6.6Zm-1.315-14.083H76.685v6.6H67.192c-.2-2.192-.41-4.4-.614-6.6Zm-4.607-18.74H42.756q.105-1.176.205-2.309h18.8q.1,1.133.205,2.31Zm.259,2.884c.212,2.358.435,4.814.665,7.327H41.833c.23-2.514.453-4.969.665-7.327ZM44.354,74.915a3.386,3.386,0,0,1,3.4-3.31h9.219a3.385,3.385,0,0,1,3.4,3.31c.045,1.664.487,7.17,1.136,14.6h-18.3c.649-7.443,1.093-12.954,1.139-14.6ZM27.3,114.221l11.24-5c-1.809,19.64-3.873,41.231-4.359,46.3H27.3Z" transform="translate(0 -22.099)" fill="#000e2f"/>
			</g>
		</g>
	</svg>
	
	<svg id="strata" xmlns="http://www.w3.org/2000/svg" width="111" height="100" viewBox="0 0 111 100">
		<g id="Group_255" data-name="Group 255" transform="translate(-1092 -1402)">
			<rect id="Rectangle_320" data-name="Rectangle 320" width="32" height="7" transform="translate(1132 1471)" fill="#ffb300"/>
			<rect id="Rectangle_321" data-name="Rectangle 321" width="18" height="18" rx="2" transform="translate(1119 1440)" fill="#ffb300" stroke="#000e2f" stroke-width="4"/>
			<g id="Group_251" data-name="Group 251" transform="translate(-4 34)">
				<g id="house" transform="translate(1096 1344.01)">
					<g id="Group_248" data-name="Group 248" transform="translate(-0.001 23.99)">
						<path id="Path_396" data-name="Path 396" d="M110.26,65.065,90.65,50.191V33.245a1.85,1.85,0,0,0-1.85-1.85H77.7a1.85,1.85,0,0,0-1.85,1.85v5.717l-19.24-14.6a1.832,1.832,0,0,0-2.22,0L.74,65.065a1.85,1.85,0,0,0,1.11,3.33H7.4v53.65a1.85,1.85,0,0,0,1.85,1.85h92.5a1.85,1.85,0,0,0,1.85-1.85V68.395h5.55a1.85,1.85,0,0,0,1.11-3.33ZM70.3,120.195H40.7v-3.7H70.3Zm0-7.4H40.7v-3.7H70.3Zm0-7.4H40.7v-3.7H70.3Zm0-7.4H40.7v-3.7H70.3Zm31.45-33.3a1.85,1.85,0,0,0-1.85,1.85v53.65H74V92.445a1.85,1.85,0,0,0-1.85-1.85H38.85A1.85,1.85,0,0,0,37,92.445v27.75H11.1V66.545a1.85,1.85,0,0,0-1.85-1.85H7.344L55.5,28.157l21.09,16a1.85,1.85,0,0,0,2.96-1.48V35.095h7.4V51.116a1.875,1.875,0,0,0,.74,1.48l15.966,12.1H101.75Z" transform="translate(0.001 -23.99)" fill="#000e2f"/>
					</g>
				</g>
				<line id="Line_5" data-name="Line 5" x2="104" transform="translate(1099.5 1466.5)" fill="none" stroke="#000e2f" stroke-linecap="round" stroke-width="3"/>
			</g>
		</g>
	</svg>
	
	<svg id="residential" xmlns="http://www.w3.org/2000/svg" width="107" height="100" viewBox="0 0 107 100">
		<g id="Group_252" data-name="Group 252" transform="translate(-1470 -1368)">
			<rect id="Rectangle_322" data-name="Rectangle 322" width="56" height="7" transform="translate(1484.5 1370)" fill="#ffb300"/>
			<rect id="Rectangle_323" data-name="Rectangle 323" width="11" height="63" transform="translate(1551.5 1403)" fill="#ffb300"/>
			<g id="hotel" transform="translate(1438 1368)">
				<g id="Group_250" data-name="Group 250" transform="translate(44)">
					<g id="Group_249" data-name="Group 249" transform="translate(0)">
						<path id="Path_399" data-name="Path 399" d="M124.327,33.469h-25.1V10.041h3.347a1.674,1.674,0,0,0,1.673-1.673V1.673A1.674,1.674,0,0,0,102.571,0h-56.9A1.674,1.674,0,0,0,44,1.673V8.367a1.674,1.674,0,0,0,1.673,1.673H49.02V98.735c0,.924.749.673,1.673.673h73.633c.924,0,1.673.251,1.673-.673V35.143A1.674,1.674,0,0,0,124.327,33.469ZM47.347,6.694V3.347H100.9V6.694ZM84.163,97.061H64.082V73.633H84.163Zm11.714,0H87.51v-25.1a1.674,1.674,0,0,0-1.673-1.673H62.408a1.674,1.674,0,0,0-1.673,1.673v25.1H52.367V10.041h43.51Zm26.776,0H99.224V36.816h23.429Z" transform="translate(-44)" fill="#000e2f"/>
						<rect id="Rectangle_306" data-name="Rectangle 306" width="16" height="3" transform="translate(59 44)" fill="#000e2f"/>
						<rect id="Rectangle_313" data-name="Rectangle 313" width="16" height="3" transform="translate(59 50)" fill="#000e2f"/>
						<rect id="Rectangle_314" data-name="Rectangle 314" width="16" height="3" transform="translate(59 70)" fill="#000e2f"/>
						<rect id="Rectangle_308" data-name="Rectangle 308" width="16" height="3" transform="translate(59 57)" fill="#000e2f"/>
						<rect id="Rectangle_309" data-name="Rectangle 309" width="16" height="3" transform="translate(59 64)" fill="#000e2f"/>
						<rect id="Rectangle_311" data-name="Rectangle 311" width="16" height="3" transform="translate(59 77)" fill="#000e2f"/>
						<rect id="Rectangle_312" data-name="Rectangle 312" width="16" height="3" transform="translate(59 84)" fill="#000e2f"/>
					</g>
				</g>
			</g>
			<line id="Line_6" data-name="Line 6" x2="104" transform="translate(1471.5 1466.5)" fill="none" stroke="#000e2f" stroke-linecap="round" stroke-width="3"/>
		</g>
	</svg>
	
	<svg id="arrow__more" xmlns="http://www.w3.org/2000/svg" width="4.821" height="8.432" viewBox="0 0 4.821 8.432">
		<path id="Icon_ionic-ios-arrow-back" data-name="Icon ionic-ios-arrow-back" d="M14.618,10.409,11.428,7.221a.6.6,0,0,1,.853-.851L15.9,9.982a.6.6,0,0,1,.018.831l-3.63,3.637a.6.6,0,0,1-.853-.851Z" transform="translate(-11.251 -6.194)" fill="#ffb300"/>
	</svg>
	
	<svg id="quotation" xmlns="http://www.w3.org/2000/svg" width="40.233" height="30.491" viewBox="0 0 40.233 30.491">
		<g id="icon-testimonials" opacity="0.24">
			<path id="Path_3" data-name="Path 3" d="M10.5,15.815c-.38,0-1.139.127-2.277.253a2.1,2.1,0,0,1-1.518-.633A2.139,2.139,0,0,1,6.2,13.917c0-2.151,1.139-4.428,3.543-6.832A46.223,46.223,0,0,1,16.068,1.9L15.056,0C9.489,2.91,5.567,6.2,3.289,9.742A18.334,18.334,0,0,0,0,19.737a11.8,11.8,0,0,0,2.53,7.718,7.991,7.991,0,0,0,6.579,3.036A6.987,6.987,0,0,0,14.8,28.214a7.84,7.84,0,0,0,2.024-5.187,8.151,8.151,0,0,0-1.771-5.314,5.44,5.44,0,0,0-4.555-1.9m27.834,2.151a5.456,5.456,0,0,0-4.428-2.024c-.38,0-1.139.127-2.277.253a2.1,2.1,0,0,1-1.518-.633,2.017,2.017,0,0,1-.506-1.518c0-2.151,1.139-4.428,3.543-6.832a46.223,46.223,0,0,1,6.326-5.187L38.462,0C32.895,2.91,28.973,6.2,26.7,9.742a18.656,18.656,0,0,0-3.289,9.995,12.04,12.04,0,0,0,2.53,7.718,7.991,7.991,0,0,0,6.579,3.036,6.987,6.987,0,0,0,5.693-2.277,7.84,7.84,0,0,0,2.024-5.187,7.544,7.544,0,0,0-1.9-5.061" fill="#000e2f"/>
		</g>
	</svg>
	
	
	<svg id="arrow__left" xmlns="http://www.w3.org/2000/svg" width="18.653" height="32.627" viewBox="0 0 18.653 32.627">
		<path id="Icon_ionic-ios-arrow-back" data-name="Icon ionic-ios-arrow-back" d="M16.874,22.5,29.219,10.167a2.332,2.332,0,1,0-3.3-3.293L11.93,20.852a2.327,2.327,0,0,0-.068,3.215L25.907,38.14a2.332,2.332,0,1,0,3.3-3.293Z" transform="translate(-11.251 -6.194)" fill="#0d0e3e" opacity="0.162"/>
	</svg>
	
	<svg id="arrow__right" xmlns="http://www.w3.org/2000/svg" width="18.653" height="32.627" viewBox="0 0 18.653 32.627">
		<path id="Icon_ionic-ios-arrow-back" data-name="Icon ionic-ios-arrow-back" d="M24.28,22.5,11.935,10.167a2.332,2.332,0,1,1,3.3-3.293L29.224,20.852a2.327,2.327,0,0,1,.068,3.215L15.247,38.14a2.332,2.332,0,1,1-3.3-3.293Z" transform="translate(-11.251 -6.194)" fill="#0d0e3e" opacity="0.162"/>
	</svg>
	
	
	
	<svg id="single-arrow__right" xmlns="http://www.w3.org/2000/svg" width="22.962" height="40.164" viewBox="0 0 22.962 40.164">
		<path id="Icon_ionic-ios-arrow-back" data-name="Icon ionic-ios-arrow-back" d="M27.29,26.27l-15.2-15.185a2.87,2.87,0,0,1,4.065-4.053L33.376,24.238A2.865,2.865,0,0,1,33.46,28.2L16.171,45.52a2.87,2.87,0,0,1-4.065-4.053Z" transform="translate(-11.251 -6.194)" fill="#0d0e3e"/>
	</svg>
	
	<svg id="single-arrow__left"  xmlns="http://www.w3.org/2000/svg" width="22.962" height="40.164" viewBox="0 0 22.962 40.164">
		<path id="Icon_ionic-ios-arrow-back" data-name="Icon ionic-ios-arrow-back" d="M18.173,26.27l15.2-15.185A2.87,2.87,0,0,0,29.3,7.032L12.087,24.238A2.865,2.865,0,0,0,12,28.2L29.292,45.52a2.87,2.87,0,0,0,4.065-4.053Z" transform="translate(-11.251 -6.194)" fill="#0d0e3e"/>
	</svg>
	
	<svg id="left" xmlns="http://www.w3.org/2000/svg" width="6.38" height="11.16" viewBox="0 0 6.38 11.16">
		<path id="Icon_ionic-ios-arrow-back" data-name="Icon ionic-ios-arrow-back" d="M13.174,11.772,17.4,7.553a.8.8,0,0,0-1.13-1.126l-4.784,4.781a.8.8,0,0,0-.023,1.1l4.8,4.814A.8.8,0,0,0,17.393,16Z" transform="translate(-11.251 -6.194)" fill="#000e2f"/>
	</svg>
	
	<svg id="close_ic" xmlns="http://www.w3.org/2000/svg" width="13.58" height="13.58" viewBox="0 0 13.58 13.58">
		<g id="Сгруппировать_336" data-name="Сгруппировать 336" transform="translate(-962.023 -374.71)">
			<g id="Сгруппировать_331" data-name="Сгруппировать 331" transform="translate(962.377 375.063)">
				<line id="Линия_12" data-name="Линия 12" x2="12.873" y2="12.873" fill="none" stroke="#000e2f" stroke-width="1"/>
				<line id="Линия_13" data-name="Линия 13" x1="12.873" y2="12.873" fill="none" stroke="#000e2f" stroke-width="1"/>
			</g>
		</g>
	</svg>


</svg>